<?xml version="1.0" encoding="utf-8"?>
<svg xmlns="http://www.w3.org/2000/svg" xmlns:xlink="http://www.w3.org/1999/xlink" style="margin: auto; background: rgb(255, 255, 255); display: block; shape-rendering: auto;" width="237px" height="237px" viewBox="0 0 100 100" preserveAspectRatio="xMidYMid">
<g transform="rotate(0 50 50)">
  <rect x="46" y="20" rx="4" ry="6" width="8" height="12" fill="#1d3f72">
    <animate attributeName="opacity" values="1;0" keyTimes="0;1" dur="2.127659574468085s" begin="-1.9503546099290778s" repeatCount="indefinite"></animate>
  </rect>
</g><g transform="rotate(30 50 50)">
  <rect x="46" y="20" rx="4" ry="6" width="8" height="12" fill="#5699d2">
    <animate attributeName="opacity" values="1;0" keyTimes="0;1" dur="2.127659574468085s" begin="-1.7730496453900708s" repeatCount="indefinite"></animate>
  </rect>
</g><g transform="rotate(60 50 50)">
  <rect x="46" y="20" rx="4" ry="6" width="8" height="12" fill="#d8ebf9">
    <animate attributeName="opacity" values="1;0" keyTimes="0;1" dur="2.127659574468085s" begin="-1.5957446808510636s" repeatCount="indefinite"></animate>
  </rect>
</g><g transform="rotate(90 50 50)">
  <rect x="46" y="20" rx="4" ry="6" width="8" height="12" fill="#71c2cc">
    <animate attributeName="opacity" values="1;0" keyTimes="0;1" dur="2.127659574468085s" begin="-1.4184397163120566s" repeatCount="indefinite"></animate>
  </rect>
</g><g transform="rotate(120 50 50)">
  <rect x="46" y="20" rx="4" ry="6" width="8" height="12" fill="#4996a2">
    <animate attributeName="opacity" values="1;0" keyTimes="0;1" dur="2.127659574468085s" begin="-1.2411347517730495s" repeatCount="indefinite"></animate>
  </rect>
</g><g transform="rotate(150 50 50)">
  <rect x="46" y="20" rx="4" ry="6" width="8" height="12" fill="#785471">
    <animate attributeName="opacity" values="1;0" keyTimes="0;1" dur="2.127659574468085s" begin="-1.0638297872340425s" repeatCount="indefinite"></animate>
  </rect>
</g><g transform="rotate(180 50 50)">
  <rect x="46" y="20" rx="4" ry="6" width="8" height="12" fill="#e8cdc5">
    <animate attributeName="opacity" values="1;0" keyTimes="0;1" dur="2.127659574468085s" begin="-0.8865248226950354s" repeatCount="indefinite"></animate>
  </rect>
</g><g transform="rotate(210 50 50)">
  <rect x="46" y="20" rx="4" ry="6" width="8" height="12" fill="#eee7d8">
    <animate attributeName="opacity" values="1;0" keyTimes="0;1" dur="2.127659574468085s" begin="-0.7092198581560283s" repeatCount="indefinite"></animate>
  </rect>
</g><g transform="rotate(240 50 50)">
  <rect x="46" y="20" rx="4" ry="6" width="8" height="12" fill="#1d3f72">
    <animate attributeName="opacity" values="1;0" keyTimes="0;1" dur="2.127659574468085s" begin="-0.5319148936170213s" repeatCount="indefinite"></animate>
  </rect>
</g><g transform="rotate(270 50 50)">
  <rect x="46" y="20" rx="4" ry="6" width="8" height="12" fill="#5699d2">
    <animate attributeName="opacity" values="1;0" keyTimes="0;1" dur="2.127659574468085s" begin="-0.35460992907801414s" repeatCount="indefinite"></animate>
  </rect>
</g><g transform="rotate(300 50 50)">
  <rect x="46" y="20" rx="4" ry="6" width="8" height="12" fill="#d8ebf9">
    <animate attributeName="opacity" values="1;0" keyTimes="0;1" dur="2.127659574468085s" begin="-0.17730496453900707s" repeatCount="indefinite"></animate>
  </rect>
</g><g transform="rotate(330 50 50)">
  <rect x="46" y="20" rx="4" ry="6" width="8" height="12" fill="#71c2cc">
    <animate attributeName="opacity" values="1;0" keyTimes="0;1" dur="2.127659574468085s" begin="0s" repeatCount="indefinite"></animate>
  </rect>
</g>
<!-- [ldio] generated by https://loading.io/ --></svg>